<?xml version="1.0" encoding="UTF-8" standalone="no"?>
<!-- Created with Inkscape (http://www.inkscape.org/) -->
<svg
   xmlns:dc="http://purl.org/dc/elements/1.1/"
   xmlns:cc="http://web.resource.org/cc/"
   xmlns:rdf="http://www.w3.org/1999/02/22-rdf-syntax-ns#"
   xmlns:svg="http://www.w3.org/2000/svg"
   xmlns="http://www.w3.org/2000/svg"
   xmlns:sodipodi="http://sodipodi.sourceforge.net/DTD/sodipodi-0.dtd"
   xmlns:inkscape="http://www.inkscape.org/namespaces/inkscape"
   id="svg2211"
   sodipodi:version="0.32"
   inkscape:version="0.45.1"
   width="593.96564"
   height="936.21564"
   version="1.0"
   sodipodi:docbase="C:\Documents and Settings\steven.williamson\Desktop"
   sodipodi:docname="30th_Infantry_Division_SSI.svg"
   inkscape:output_extension="org.inkscape.output.svg.inkscape">
  <metadata
     id="metadata2216">
    <rdf:RDF>
      <cc:Work
         rdf:about="">
        <dc:format>image/svg+xml</dc:format>
        <dc:type
           rdf:resource="http://purl.org/dc/dcmitype/StillImage" />
      </cc:Work>
    </rdf:RDF>
  </metadata>
  <defs
     id="defs2214" />
  <sodipodi:namedview
     inkscape:window-height="968"
     inkscape:window-width="1280"
     inkscape:pageshadow="2"
     inkscape:pageopacity="0.0"
     guidetolerance="10.0"
     gridtolerance="10.0"
     objecttolerance="10.0"
     borderopacity="1.0"
     bordercolor="#666666"
     pagecolor="#ffffff"
     id="base"
     inkscape:zoom="0.52683648"
     inkscape:cx="121.42948"
     inkscape:cy="298.67995"
     inkscape:window-x="-4"
     inkscape:window-y="-4"
     inkscape:current-layer="svg2211" />
  <g
     id="g8075"
     transform="matrix(3.7,0,0,3.7,-1.734375,0.4625)">
    <path
       transform="matrix(5.1666668,0,0,5.6923077,-286.83399,-603.46257)"
       d="M 86.234746 128.17772 A 15.099469 21.810345 0 1 1  56.035808,128.17772 A 15.099469 21.810345 0 1 1  86.234746 128.17772 z"
       sodipodi:ry="21.810345"
       sodipodi:rx="15.099469"
       sodipodi:cy="128.17772"
       sodipodi:cx="71.135277"
       id="path4184"
       style="opacity:1;fill:#d40000;fill-opacity:1;stroke:none;stroke-width:0.78497219;stroke-linecap:round;stroke-linejoin:miter;stroke-miterlimit:4;stroke-dasharray:none;stroke-opacity:1"
       sodipodi:type="arc" />
    <path
       id="path2220"
       d="M 80.65625,-0.125 C 57.875526,-0.125 37.579329,14.79401 23.3125,37.78125 C 9.0456698,60.768489 0.46875,92.011455 0.46875,126.375 C 0.46874999,160.73855 9.0456706,191.98151 23.3125,214.96875 C 37.579328,237.95598 57.875528,252.90625 80.65625,252.90625 C 103.43698,252.90626 123.85817,237.95599 138.125,214.96875 C 152.39184,191.9815 160.99999,160.73855 161,126.375 C 160.99999,92.011453 152.39183,60.768491 138.125,37.78125 C 123.85818,14.794008 103.43697,-0.125 80.65625,-0.125 z M 80.65625,12.28125 C 93.677988,12.28125 105.98604,18.291171 116.59375,29.0625 L 116.59375,29.53125 L 116.59375,30.375 L 116.59375,88.90625 L 43.96875,88.90625 L 43.96875,34.5625 L 43.96875,29.8125 C 54.739997,18.567951 67.334053,12.28125 80.65625,12.28125 z M 130.34375,47.40625 C 142.22692,67.776491 149.71875,95.622866 149.71875,126.375 C 149.71875,157.12714 142.22691,185.00476 130.34375,205.375 L 130.34375,47.40625 z M 30.1875,48.65625 L 30.1875,204.125 C 18.731099,183.87372 11.59375,156.49014 11.59375,126.375 C 11.59375,96.259867 18.731098,68.907526 30.1875,48.65625 z M 48.15625,102.34375 L 59.28125,102.34375 L 54.09375,116.71875 L 48.15625,102.34375 z M 75.40625,102.34375 L 84.46875,102.34375 L 79.9375,115.09375 L 75.40625,102.34375 z M 100.53125,102.34375 L 109.625,102.34375 L 105.4375,115.40625 L 100.53125,102.34375 z M 67.375,102.96875 L 75.8125,126.75 L 67.71875,149.625 L 58.53125,127.40625 L 67.375,102.96875 z M 92.46875,103.125 L 101.59375,127.375 L 93.5625,152.34375 L 93.15625,152.34375 L 84.09375,126.78125 L 92.46875,103.125 z M 116.59375,106.15625 L 116.59375,145.125 L 109.84375,127.15625 L 116.59375,106.15625 z M 43.96875,112.65625 L 50.15625,127.59375 L 43.96875,144.71875 L 43.96875,112.65625 z M 54.59375,138.28125 L 60.4375,152.34375 L 49.5,152.34375 L 54.59375,138.28125 z M 79.9375,138.40625 L 84.90625,152.34375 L 75,152.34375 L 79.9375,138.40625 z M 106,139.15625 L 110.96875,152.34375 L 101.78125,152.34375 L 106,139.15625 z M 43.96875,165.75 L 116.59375,165.75 L 116.59375,221.78125 L 116.59375,223.71875 C 105.98739,234.48626 93.675533,240.5 80.65625,240.5 C 67.334052,240.49999 54.739997,234.2133 43.96875,222.96875 L 43.96875,165.75 z "
       style="opacity:1;fill:#0000ca;fill-opacity:1;stroke:none;stroke-width:2.25138545;stroke-linecap:round;stroke-linejoin:miter;stroke-miterlimit:4;stroke-dasharray:none;stroke-opacity:1" />
  </g>
</svg>
